# xmcd
#
# Track frame offsets: 
#        150
#        19991
#        40101
#        59641
#        77415
#        97441
#        117913
#        138544
#        157441
#        177265
#        193429
#        212997
#        232925
#        250548
#
# Disc length: 3624 seconds
#
# Revision: 1
# Processed by: cddbd v1.5.2PL0 Copyright (c) Steve Scherf et al.
# Submitted via: ExactAudioCopyFreeDBPlugin 1.0
#
DISCID=d10e260e
DTITLE=Luis Miguel del Amargue - De nuevo contigo
DYEAR=2007
DGENRE=Salsa
TTITLE0=Ya no puedo amarte más
TTITLE1=Embriagado
TTITLE2=Mil defectos
TTITLE3=Solo tu y yo
TTITLE4=Cuando fuiste mía
TTITLE5=Enamorado estoy
TTITLE6=Me hiciste daño
TTITLE7=Amor Amor
TTITLE8=Te quería
TTITLE9=En una familia
TTITLE10=Sangre de Guano
TTITLE11=Yo quisiera saber
TTITLE12=Penas
TTITLE13=No speak spanish
EXTD=YEAR: 2007
EXTT0=
EXTT1=
EXTT2=
EXTT3=
EXTT4=
EXTT5=
EXTT6=
EXTT7=
EXTT8=
EXTT9=
EXTT10=
EXTT11=
EXTT12=
EXTT13=
PLAYORDER=
